<svg width="80" height="28" viewBox="0 0 80 28" fill="none" xmlns="http://www.w3.org/2000/svg">
<g clip-path="url(#clip0_14_487)">
<path fill-rule="evenodd" clip-rule="evenodd" d="M65.3559 0C69.0629 2.71875e-07 72.6185 1.44364 75.2396 4.01364C77.8608 6.5837 79.3335 10.0697 79.3335 13.7043V26.465C79.3335 27.3126 78.6434 28 77.7924 28H52.9203C52.0694 27.9998 51.3792 27.3126 51.3792 26.465V13.7043C51.3792 10.0698 52.852 6.58369 55.473 4.01364C58.0941 1.44375 61.6493 0.000126155 65.3559 0ZM60.4912 6.68864C57.7876 6.68883 55.5957 8.87259 55.5957 11.5657C55.596 14.2586 57.7878 16.4418 60.4912 16.4419C61.5505 16.4419 62.5315 16.1062 63.3324 15.5365C63.6445 15.3143 63.3226 14.816 62.9389 14.816C61.1366 14.8158 59.6751 13.3602 59.675 11.5649C59.6753 9.76976 61.1367 8.31482 62.9389 8.31458C63.3225 8.31458 63.6443 7.81623 63.3324 7.59407C62.5315 7.02447 61.5504 6.68866 60.4912 6.68864ZM70.6902 6.68864C67.9866 6.68897 65.7947 8.87267 65.7947 11.5657C65.795 14.2585 67.9868 16.4416 70.6902 16.4419C71.7494 16.4419 72.7303 16.1062 73.5314 15.5365C73.8436 15.3145 73.5222 14.8162 73.1386 14.816C71.3362 14.8159 69.8748 13.3603 69.8748 11.5649C69.8749 9.7697 71.3364 8.31471 73.1386 8.31458C73.5222 8.31438 73.8436 7.81611 73.5314 7.59407C72.7303 7.02442 71.7494 6.68864 70.6902 6.68864Z" fill="white"/>
<path fill-rule="evenodd" clip-rule="evenodd" d="M14.3522 0.0782471C18.001 0.0782477 21.5007 1.54513 24.0809 4.15607C26.5499 6.6547 27.9824 10.0054 28.1011 13.5251V11.1328C28.273 11.0643 28.4447 11.0474 28.6166 11.0816C28.7885 11.1158 28.9609 11.1158 29.1328 11.0816C29.2017 10.9103 29.2186 10.7387 29.1842 10.5674C29.1499 10.3618 29.1668 10.1732 29.2356 10.0019H29.4941L30.0096 9.95075H30.2674C30.3361 9.84798 30.3539 9.74486 30.3195 9.64208C30.2851 9.50522 30.2851 9.38563 30.3195 9.28297V8.51202C30.3195 8.40924 30.3017 8.30611 30.2674 8.20333C30.2674 8.06634 30.3021 7.92927 30.3708 7.79226H31.3511C31.4199 7.68958 31.4368 7.60402 31.4026 7.53555V6.7646C31.4714 6.69612 31.5572 6.67925 31.6604 6.71341H31.9187C32.0219 6.67918 32.1078 6.67915 32.1765 6.71341H32.4343C32.503 6.57642 32.5207 6.47324 32.4864 6.40472C32.4864 6.30205 32.5035 6.19947 32.5379 6.0968V5.68497C32.6066 5.61669 32.6926 5.59961 32.7956 5.63377C32.8986 5.63377 32.9846 5.61675 33.0534 5.58258H33.621V4.55492C33.7241 4.48639 33.8106 4.46947 33.8794 4.50372H34.6526C34.7214 4.4352 34.7391 4.36595 34.7048 4.29743V4.09189C34.7391 3.98929 34.7391 3.88657 34.7048 3.78397V3.42409H35.7366C35.8397 3.25282 35.8737 3.0642 35.8394 2.85869C35.805 2.65322 35.8227 2.46451 35.8915 2.29328H37.9549C38.0235 2.12211 38.0406 1.95099 38.0063 1.77982C38.0063 1.57427 38.0411 1.38571 38.1099 1.21441H41.2563C41.3252 1.11163 41.3599 1.00851 41.3599 0.905731V0.649005C41.3599 0.443675 41.377 0.272506 41.4112 0.135552C41.4458 0.101292 41.4804 0.0835955 41.5148 0.0835955H48.9953C49.0641 0.186375 49.081 0.289499 49.0467 0.392278C49.0467 0.495004 49.0646 0.580513 49.0989 0.649005V1.11127C49.2019 1.17974 49.3049 1.21436 49.408 1.21441C49.5455 1.18018 49.6832 1.16325 49.8207 1.16322C49.9238 1.19748 50.0274 1.21441 50.1306 1.21441C50.2681 1.18017 50.4058 1.18016 50.5433 1.21441H50.9045C51.0077 1.18022 51.1283 1.19712 51.2658 1.26561V3.32172C51.3688 3.39005 51.4719 3.42407 51.5749 3.42409C51.678 3.3899 51.7639 3.37296 51.8327 3.3729C51.9014 3.4071 51.9703 3.42404 52.0391 3.42409C52.1422 3.38984 52.2287 3.3729 52.2975 3.3729C52.3662 3.44137 52.4003 3.50997 52.4003 3.57843V7.74107H51.3686C51.2999 7.87807 51.2658 8.01516 51.2658 8.15214C51.3002 8.25488 51.3172 8.37505 51.3172 8.51202C51.2829 8.61467 51.2658 8.73434 51.2658 8.87113C51.3002 8.97383 51.3002 9.09409 51.2658 9.23101V9.59089C51.3002 9.69362 51.3002 9.83074 51.2658 10.0019H50.2334C50.1646 10.1732 50.1475 10.3618 50.1819 10.5674C50.2163 10.7387 50.1993 10.9103 50.1306 11.0816H49.1503C49.0815 11.1842 49.0467 11.2868 49.0467 11.3895C49.081 11.4921 49.0988 11.5778 49.0989 11.6462V12.1092C49.03 12.1778 48.9435 12.2116 48.8404 12.2116C48.7373 12.1775 48.6514 12.1774 48.5826 12.2116H48.0671C47.9984 12.3144 47.9635 12.4175 47.9635 12.5203C47.9979 12.5888 47.9979 12.6743 47.9635 12.777V13.2393C47.7916 13.3078 47.6023 13.3255 47.3959 13.2913C47.2242 13.2571 47.0523 13.274 46.8806 13.3425V14.2677C46.8462 14.3362 46.8113 14.3701 46.777 14.3701H44.7648C44.6617 14.5414 44.6278 14.73 44.6622 14.9355C44.6966 15.1068 44.6788 15.2785 44.6099 15.4497C44.6099 15.4838 44.5928 15.5009 44.5586 15.5009H42.5466C42.4433 15.6722 42.4086 15.8608 42.443 16.0664C42.4774 16.2375 42.4603 16.4086 42.3915 16.5797H39.193C39.1241 16.7512 39.1071 16.9397 39.1415 17.1452C39.1759 17.3164 39.1589 17.5051 39.0902 17.7106H35.9428C35.8753 17.7778 35.8394 17.813 35.8394 17.813V18.687C35.7362 18.7555 35.6161 18.7894 35.4788 18.7896H33.7244L33.621 18.8927V22.0276C33.6898 22.096 33.7762 22.13 33.8794 22.13C33.9825 22.0957 34.0685 22.0788 34.1371 22.0788C34.2403 22.113 34.3261 22.13 34.3949 22.13C34.498 22.0957 34.6016 22.1127 34.7048 22.1811V23.1065C34.8079 23.1748 34.9109 23.2095 35.014 23.2097C35.1171 23.1753 35.2036 23.1753 35.2724 23.2097H35.7366C35.8395 23.3808 35.8736 23.5519 35.8394 23.723C35.8048 23.8944 35.8227 24.066 35.8915 24.2373C37.1983 24.2715 38.4711 24.2884 39.7091 24.2884H43.4754C43.5786 24.1172 43.6126 23.9454 43.5783 23.7742C43.544 23.569 43.561 23.3808 43.6296 23.2097H45.6938C45.7626 23.0384 45.7795 22.8497 45.7452 22.6442C45.7108 22.4387 45.7279 22.25 45.7966 22.0788H46.777C46.8457 22.0103 46.8806 21.9756 46.8806 21.9756V21.0512C47.0094 20.9998 47.1381 20.9767 47.2671 20.983L47.5249 21.0152C47.654 21.0216 47.7831 20.9994 47.9122 20.948C47.9808 20.8794 47.9979 20.7939 47.9635 20.6912V19.9715C48.1356 19.903 48.3079 19.8861 48.4798 19.9203C48.6861 19.9545 48.8925 19.9376 49.0989 19.8691V18.8927C49.1677 18.8241 49.2534 18.7896 49.3565 18.7896H50.1819V20.8967C50.01 20.9995 49.8207 21.0334 49.6143 20.9992C49.4425 20.965 49.2707 20.9827 49.0989 21.0512V22.0276C48.9269 22.096 48.7376 22.113 48.5312 22.0788C48.3593 22.0446 48.1869 22.0615 48.015 22.13C47.9806 22.1986 47.9635 22.2331 47.9635 22.2331V23.1065C47.7916 23.175 47.6023 23.2097 47.3959 23.2097C47.224 23.1754 47.0524 23.1924 46.8806 23.2608V24.1853C46.7773 24.2539 46.6738 24.2884 46.5705 24.2884H45.848C45.7448 24.4597 45.7108 24.6484 45.7452 24.8539C45.7795 25.025 45.7624 25.1963 45.6938 25.3674C45.35 25.4016 45.006 25.4193 44.6622 25.4193C44.3526 25.385 44.0081 25.385 43.6296 25.4193C43.561 25.4878 43.5269 25.5733 43.5269 25.676C43.5612 25.7444 43.5783 25.8302 43.5783 25.9328C43.5439 26.0013 43.5269 26.0874 43.5269 26.1903C43.5612 26.2929 43.5783 26.3954 43.5783 26.4981H41.4112C41.3425 26.6694 41.3255 26.8581 41.3599 27.0636C41.3943 27.2348 41.3773 27.4066 41.3086 27.5778H39.2443C39.1759 27.646 39.1417 27.6971 39.1415 27.7314C39.1759 27.7998 39.1757 27.8684 39.1415 27.9368H32.5379C32.5377 27.8684 32.503 27.7998 32.4343 27.7314C32.3658 27.6971 32.3145 27.646 32.2801 27.5778H30.4223C30.3879 27.5777 30.3539 27.5601 30.3195 27.5259V26.8069C30.182 26.567 30.0096 26.4639 29.8032 26.4981C29.6315 26.5323 29.4596 26.5323 29.2878 26.4981C29.2191 26.3954 29.1842 26.2929 29.1842 26.1903C29.2186 26.0532 29.2186 25.9154 29.1842 25.7784C29.1841 25.573 29.0466 25.4358 28.7715 25.3674H28.2039C28.1383 25.3346 28.1039 25.3176 28.1011 25.3162V24.5453C28.0324 24.511 27.9806 24.477 27.9462 24.4428C27.9118 24.4085 27.86 24.357 27.7912 24.2884H27.0172V19.4367C26.3335 21.068 25.343 22.5682 24.0809 23.8453C21.5007 26.4561 18.001 27.9232 14.3522 27.9232H1.54135C0.690437 27.9232 0.000456385 27.2356 0.000305176 26.3881V1.61325C0.000305176 0.765585 0.690343 0.0782471 1.54135 0.0782471H14.3522ZM40.4309 2.29328C40.3623 2.29337 40.2934 2.328 40.2246 2.39643V2.65316C40.259 2.72165 40.259 2.79019 40.2246 2.85869V3.11618C40.2589 3.21885 40.2419 3.30444 40.1733 3.3729H38.0576V3.93831C38.0234 4.04093 38.0063 4.14363 38.0063 4.24623C38.0406 4.31471 38.0235 4.38329 37.9549 4.45177C37.7829 4.48602 37.6107 4.50372 37.4386 4.50372C37.2667 4.46952 37.095 4.4695 36.9231 4.50372V4.81165C36.9575 4.91428 36.9573 4.9999 36.9231 5.06837V5.32587C36.9573 5.42844 36.9404 5.51415 36.8718 5.58258C36.6998 5.61685 36.5276 5.61683 36.3555 5.58258C36.1836 5.54833 36.0113 5.56527 35.8394 5.63377V7.58674C35.8394 7.65522 35.8053 7.72377 35.7366 7.79226H35.014C34.9109 7.79231 34.8079 7.82695 34.7048 7.89541V11.0296C34.6016 11.0981 34.498 11.1328 34.3949 11.1328C34.3261 11.0985 34.2403 11.0816 34.1371 11.0816C34.0685 11.1158 33.9825 11.1327 33.8794 11.1328C33.7762 11.0985 33.6898 11.1154 33.621 11.184V17.5563C33.621 17.5222 33.6558 17.5737 33.7244 17.7106H34.1886C34.2916 17.6764 34.3776 17.6764 34.4464 17.7106C34.5495 17.7106 34.636 17.6759 34.7048 17.6075C34.7391 17.4364 34.7391 17.2651 34.7048 17.094C34.7048 16.9227 34.7219 16.7512 34.7562 16.5797H37.8513C37.9201 16.5797 37.989 16.5458 38.0576 16.4774C38.0576 16.4089 38.0406 16.3403 38.0063 16.2719C38.0063 16.1691 38.0232 16.0829 38.0576 16.0144C38.0576 15.946 38.0406 15.8603 38.0063 15.7576C38.0063 15.655 38.0411 15.5694 38.1099 15.5009H40.2246C40.2246 15.2269 40.2424 15.0383 40.2768 14.9355C40.2768 14.8328 40.259 14.7473 40.2246 14.6788C40.2246 14.576 40.2593 14.4898 40.3282 14.4213C40.5 14.3871 40.6719 14.3871 40.8436 14.4213C41.0156 14.4213 41.188 14.4044 41.3599 14.3701V13.8047C41.3599 13.7362 41.3428 13.6506 41.3086 13.548C41.3086 13.4452 41.3602 13.3598 41.4635 13.2913H42.1853C42.2884 13.2913 42.3743 13.2566 42.443 13.1881V12.2116H43.0106C43.1138 12.1774 43.2004 12.1774 43.2692 12.2116C43.3722 12.2116 43.4753 12.1776 43.5783 12.1092V11.1328C43.6814 11.0643 43.7673 11.0474 43.836 11.0816C43.9392 11.1158 44.0427 11.1158 44.1459 11.0816C44.2146 11.0816 44.3005 11.0985 44.4036 11.1328C44.5068 11.1328 44.5934 11.0812 44.6622 10.9784V8.97428H44.7135V8.92309C44.7479 8.92303 44.7648 8.90534 44.7648 8.87113H45.7966V4.76045C45.7279 4.69195 45.6761 4.64036 45.6417 4.60611C45.6073 4.57186 45.5562 4.52015 45.4876 4.45177H44.6622V3.68082C44.5245 3.54379 44.438 3.44142 44.4036 3.3729H42.5466C42.4777 3.33864 42.443 3.32172 42.443 3.32172V2.70435C42.4429 2.43051 42.3054 2.29328 42.0303 2.29328H40.4309ZM7.96478 6.68972C6.90543 6.68972 5.92462 7.02467 5.12356 7.59438C4.81145 7.8165 5.13341 8.3149 5.51707 8.3149C7.3194 8.3151 8.78014 9.77068 8.78017 11.566C8.77991 13.3611 7.31926 14.8169 5.51707 14.8171C5.13333 14.8171 4.81128 15.3155 5.12356 15.5376C5.92456 16.1073 6.90553 16.4422 7.96478 16.4422C10.6684 16.4422 12.86 14.259 12.8602 11.566C12.8602 8.87286 10.6685 6.68982 7.96478 6.68972ZM18.1637 6.68972C17.1044 6.68973 16.1235 7.02473 15.3225 7.59438C15.0109 7.81659 15.3325 8.31488 15.7161 8.3149C17.5185 8.31491 18.9798 9.77057 18.9799 11.566C18.9796 13.3612 17.5183 14.8171 15.7161 14.8171C15.3323 14.8171 15.0102 15.3155 15.3225 15.5376C16.1235 16.1073 17.1044 16.4422 18.1637 16.4422C20.8675 16.4422 23.0589 14.259 23.0592 11.566C23.0592 8.87278 20.8675 6.68972 18.1637 6.68972Z" fill="white"/>
<path d="M51.214 17.7104C51.2827 17.7789 51.3003 17.8645 51.2661 17.9671V18.2247C51.3003 18.2932 51.3174 18.3789 51.3174 18.4814V18.6869C51.2832 18.6869 51.2661 18.704 51.2661 18.7381C51.2661 18.7381 51.2484 18.7381 51.214 18.7381C51.0421 18.7723 50.8704 18.7892 50.6985 18.7894H50.1822V18.2759C50.1822 18.1046 50.1993 17.9159 50.2337 17.7104H51.214Z" fill="white"/>
</g>
<defs>
<clipPath id="clip0_14_487">
<rect width="79.3333" height="28" fill="white"/>
</clipPath>
</defs>
</svg>
